  <svg viewBox="0 0 350 350" xmlns="http://www.w3.org/2000/svg">
    <rect x="0" y="0" width="350" height="350" style="fill: #79b8ff" />
          <rect x="140" y="70" width="70" height="70" style="fill: #ffffff" />
          <rect x="140" y="140" width="70" height="70" style="fill: #ffffff" />
          <rect x="140" y="210" width="70" height="70" style="fill: #ffffff" />
          <rect x="140" y="280" width="70" height="70" style="fill: #ffffff" />
          <rect x="70" y="0" width="70" height="70" style="fill: #ffffff" />
            <rect x="210" y="0" width="70" height="70" style="fill: #ffffff" />
          <rect x="70" y="210" width="70" height="70" style="fill: #ffffff" />
            <rect x="210" y="210" width="70" height="70" style="fill: #ffffff" />
          <rect x="70" y="280" width="70" height="70" style="fill: #ffffff" />
            <rect x="210" y="280" width="70" height="70" style="fill: #ffffff" />
          <rect x="0" y="0" width="70" height="70" style="fill: #ffffff" />
            <rect x="280" y="0" width="70" height="70" style="fill: #ffffff" />
          <rect x="0" y="210" width="70" height="70" style="fill: #ffffff" />
            <rect x="280" y="210" width="70" height="70" style="fill: #ffffff" />
  </svg>
